<?xml version="1.0" encoding="UTF-8"?>
<svg id="Capa_1" data-name="Capa 1" xmlns="http://www.w3.org/2000/svg" viewBox="0 0 417 384">
  <defs>
    <style>
      .cls-1 {
        fill: #00f3eb;
        stroke-width: 0px;
      }
    </style>
  </defs>
  <path class="cls-1" d="M193.5,101.74v10.12l-26,16.65v26.27l41.5,25.98,43.5-26.25v-25.14l-26-16.86-.18-10.51c-.05-3.26,3.5-5.3,6.28-3.61l34.89,21.12v44.31l-58.5,35.58-57.5-35.88v-44.3l35.76-21.03c2.76-1.62,6.24.37,6.24,3.57Z"/>
  <path class="cls-1" d="M201.5,266.02l-81.2-49.42c-.79-.48-1.8.09-1.8,1.01v23.15l74,44.74v12.23c0,2.54-2.77,4.11-4.95,2.81l-80.15-47.96c-3.03-1.82-4.89-5.09-4.89-8.63v-43.32c0-5.4,5.88-8.73,10.51-5.96l96.49,57.8,96.83-57.82c4.63-2.76,10.5.57,10.5,5.96l-.29,43.22c-.02,3.52-1.89,6.77-4.91,8.57l-80.72,48.04c-2.18,1.34-4.99-.23-4.99-2.79v-13.15l74.59-44v-21.93c0-.92-.99-1.49-1.78-1.02l-82.22,48.19v44.05s-1.67,3.75-6.83,4.24c0,0-8.17-1.21-8.17-5.36v-42.64Z"/>
  <path class="cls-1" d="M307,104.5c-7.46,0-13.5,6.04-13.5,13.5,0,5.1,2.83,9.53,7,11.83v24.01c0,1.65-.86,3.18-2.26,4.04l-88.74,54.21-88.74-54.21c-1.41-.86-2.26-2.39-2.26-4.04v-25.01c4.17-2.3,7-6.73,7-11.83,0-7.46-6.04-13.5-13.5-13.5s-13.5,6.04-13.5,13.5c0,3.75,1.53,7.14,4,9.59v33.41c0,3.42,1.78,6.59,4.7,8.38l94.3,57.56v18.64l8,5.08,8-5.65v-19.5l95.08-56.47c2.64-1.57,4.25-4.4,4.25-7.47v-33.32c2.27-2.42,3.67-5.66,3.67-9.23,0-7.46-6.04-13.5-13.5-13.5ZM112,122c-2.49,0-4.5-2.01-4.5-4.5s2.01-4.5,4.5-4.5,4.5,2.01,4.5,4.5-2.01,4.5-4.5,4.5ZM307,122c-2.49,0-4.5-2.01-4.5-4.5s2.01-4.5,4.5-4.5,4.5,2.01,4.5,4.5-2.01,4.5-4.5,4.5Z"/>
  <path class="cls-1" d="M209.17,65.5c-7.46,0-13.5,6.04-13.5,13.5,0,4.68,2.38,8.8,6,11.22v27.78c0,4.14,3.36,7.5,7.5,7.5s7.5-3.36,7.5-7.5v-27.78c3.62-2.42,6-6.54,6-11.22,0-7.46-6.04-13.5-13.5-13.5ZM209.17,83c-2.49,0-4.5-2.01-4.5-4.5s2.01-4.5,4.5-4.5,4.5,2.01,4.5,4.5-2.01,4.5-4.5,4.5Z"/>
</svg>